<svg width="64" height="64" viewBox="0 0 64 64" fill="none" xmlns="http://www.w3.org/2000/svg">
<rect width="64" height="64" fill="#064CF9"/>
<rect width="64" height="64" fill="#1E4477"/>
<path fill-rule="evenodd" clip-rule="evenodd" d="M28.4422 12.3824C26.6245 13.2083 23.9932 14.4023 22.595 15.0359C21.1967 15.6694 19.3205 16.522 18.4257 16.9305C17.5308 17.339 16.6276 17.7473 16.4184 17.8376C16.2093 17.9281 16.052 18.0441 16.0689 18.0955C16.1012 18.1942 18.0565 19.0312 26.6337 22.618L31.8925 24.8172L38.2264 22.1762C41.7101 20.7236 45.281 19.235 46.1619 18.8682C47.0428 18.5014 47.7498 18.161 47.7331 18.1119C47.7164 18.0627 46.4694 17.4658 44.9621 16.7855C41.2019 15.0884 35.5293 12.4965 33.6392 11.6118C32.778 11.2087 32.0001 10.8794 31.9104 10.8799C31.8206 10.8804 30.26 11.5565 28.4422 12.3824ZM12.828 20.6688C12.8017 20.7362 12.7921 25.9895 12.8065 32.3426L12.8326 43.8939L15.2224 45.0046C18.6253 46.5862 23.6057 48.9193 28.0691 51.0226L31.9161 52.8354L36.3061 50.7948C38.7206 49.6723 41.3824 48.4347 42.2214 48.0444C43.0603 47.6541 45.417 46.5608 47.4585 45.6149L51.1702 43.8952L51.196 32.2188C51.2103 25.7967 51.183 20.5424 51.1354 20.5424C51.0878 20.5424 48.4907 21.6005 45.364 22.8939C42.2373 24.1872 38.3978 25.7737 36.8317 26.4194L33.9844 27.5933L33.9336 37.487L33.8827 47.3807L32.891 47.8153L31.8993 48.2498L30.934 47.8018L29.9686 47.3538L29.9427 37.4769L29.9168 27.5999L28.6456 27.0708C27.9465 26.7798 26.2304 26.0711 24.8322 25.4958C21.4438 24.1018 13.9735 21.0128 13.3626 20.7532C13.0018 20.5997 12.8633 20.5779 12.828 20.6688Z" fill="white"/>
</svg>
