<svg width="200" height="200" viewBox="0 0 200 200" fill="none" xmlns="http://www.w3.org/2000/svg">
<rect width="200" height="200" fill="#064CF9"/>
<rect width="200" height="200" fill="#1E4477"/>
<path fill-rule="evenodd" clip-rule="evenodd" d="M88.8826 38.6953C83.2022 41.2762 74.9795 45.0076 70.61 46.9876C66.2404 48.9673 60.3773 51.6316 57.5808 52.9083C54.7843 54.1847 51.9617 55.4605 51.308 55.7429C50.6547 56.0256 50.1631 56.3883 50.2158 56.5489C50.3169 56.8571 56.4272 59.4728 83.2308 70.6816L99.6647 77.5543L119.458 69.3009C130.345 64.7615 141.504 60.1098 144.257 58.9635C147.009 57.8172 149.219 56.7534 149.167 56.6C149.114 56.4462 145.218 54.581 140.507 52.455C128.757 47.1517 111.03 39.0518 105.123 36.2873C102.432 35.0277 100.001 33.9984 99.7206 34C99.44 34.0016 94.563 36.1145 88.8826 38.6953ZM40.088 64.5903C40.006 64.8011 39.9758 81.2176 40.021 101.071L40.1026 137.169L47.5706 140.64C58.2046 145.582 73.7684 152.873 87.7166 159.446L99.7384 165.111L113.457 158.734C121.002 155.226 129.321 151.359 131.942 150.139C134.564 148.919 141.929 145.503 148.308 142.547L159.907 137.173L159.988 100.684C160.033 80.6152 159.948 64.1952 159.799 64.1952C159.65 64.1952 151.534 67.5021 141.763 71.5439C131.992 75.5855 119.994 80.5433 115.1 82.5609L106.202 86.2295L106.043 117.147L105.884 148.065L102.785 149.423L99.686 150.781L96.6693 149.381L93.6525 147.981L93.5715 117.116L93.4905 86.25L89.5182 84.5966C87.3334 83.6873 81.9708 81.4725 77.6012 79.6747C67.0126 75.3184 43.6679 65.6653 41.7586 64.854C40.6311 64.3745 40.1983 64.3064 40.088 64.5903Z" fill="white"/>
</svg>
